<svg width="19" height="19" viewBox="0 0 19 19" fill="none" xmlns="http://www.w3.org/2000/svg">
<circle cx="9.5" cy="9.5" r="9.5" fill="#E46942"/>
<path d="M3.58949 13V11.892L6.17827 9.49503C6.39844 9.28196 6.5831 9.0902 6.73224 8.91974C6.88376 8.74929 6.99858 8.58239 7.0767 8.41903C7.15483 8.25331 7.19389 8.07457 7.19389 7.88281C7.19389 7.66974 7.14536 7.48627 7.0483 7.33239C6.95123 7.17614 6.81866 7.05658 6.65057 6.97372C6.48248 6.88849 6.2919 6.84588 6.07884 6.84588C5.8563 6.84588 5.66217 6.89086 5.49645 6.98082C5.33073 7.07079 5.20289 7.19981 5.11293 7.3679C5.02296 7.53598 4.97798 7.73603 4.97798 7.96804H3.51847C3.51847 7.49219 3.62618 7.07907 3.84162 6.72869C4.05705 6.37831 4.3589 6.10724 4.74716 5.91548C5.13542 5.72372 5.58286 5.62784 6.08949 5.62784C6.61032 5.62784 7.06368 5.72017 7.44957 5.90483C7.83783 6.08712 8.13968 6.34044 8.35511 6.66477C8.57055 6.98911 8.67827 7.3608 8.67827 7.77983C8.67827 8.05445 8.62382 8.32552 8.51491 8.59304C8.40838 8.86056 8.2178 9.15767 7.94318 9.48438C7.66856 9.80871 7.28149 10.1982 6.78196 10.6527L5.72017 11.6932V11.7429H8.77415V13H3.58949ZM12.5765 13.0994C12.0462 13.0994 11.5739 13.0083 11.1596 12.826C10.7477 12.6413 10.4222 12.388 10.1831 12.0661C9.94632 11.7417 9.8244 11.3677 9.81729 10.9439H11.3656C11.3751 11.1214 11.4331 11.2777 11.5396 11.4126C11.6485 11.5452 11.7929 11.6482 11.9728 11.7216C12.1528 11.795 12.3552 11.8317 12.5801 11.8317C12.8145 11.8317 13.0216 11.7902 13.2015 11.7074C13.3815 11.6245 13.5223 11.5097 13.6241 11.3629C13.7259 11.2161 13.7768 11.0469 13.7768 10.8551C13.7768 10.661 13.7224 10.4893 13.6135 10.3402C13.5069 10.1887 13.353 10.0703 13.1518 9.98509C12.9529 9.89986 12.7162 9.85724 12.4416 9.85724H11.7633V8.72798H12.4416C12.6736 8.72798 12.8784 8.68774 13.0559 8.60724C13.2359 8.52675 13.3755 8.41548 13.475 8.27344C13.5744 8.12902 13.6241 7.96094 13.6241 7.76918C13.6241 7.58688 13.5803 7.42708 13.4927 7.28977C13.4075 7.15009 13.2868 7.04119 13.1305 6.96307C12.9766 6.88494 12.7967 6.84588 12.5907 6.84588C12.3824 6.84588 12.1918 6.88376 12.019 6.95952C11.8462 7.03291 11.7077 7.13826 11.6035 7.27557C11.4993 7.41288 11.4437 7.57386 11.4366 7.75852H9.96289C9.96999 7.33949 10.0895 6.97017 10.3216 6.65057C10.5536 6.33097 10.8661 6.0812 11.2591 5.90128C11.6544 5.71899 12.1007 5.62784 12.5978 5.62784C13.0997 5.62784 13.5389 5.71899 13.9153 5.90128C14.2917 6.08357 14.5841 6.32978 14.7924 6.63991C15.0031 6.94768 15.1073 7.29332 15.1049 7.67685C15.1073 8.08404 14.9806 8.42377 14.725 8.69602C14.4717 8.96828 14.1414 9.1411 13.7342 9.21449V9.27131C14.2692 9.33996 14.6764 9.5258 14.9558 9.82884C15.2375 10.1295 15.3772 10.5059 15.3748 10.9581C15.3772 11.3724 15.2576 11.7405 15.0162 12.0625C14.777 12.3845 14.4468 12.6378 14.0254 12.8224C13.604 13.0071 13.121 13.0994 12.5765 13.0994Z" fill="white"/>
</svg>
